{"title":"Winners &amp; Losers - S05E01 - Let The Right One In","uid":15220231,"size":359751725,"categoryP":"video","categoryS":"tv_shows","magnet":"?xt=urn:btih:b8d35a8c34e6c1ab1aa855fcd8d384dd196d2a2a&amp;dn=Winners+%26amp%3B+Losers+-+S05E01+-+Let+The+Right+One+In&amp;tr=udp%3A%2F%2Ftracker.leechers-paradise.org%3A6969&amp;tr=udp%3A%2F%2Fzer0day.ch%3A1337&amp;tr=udp%3A%2F%2Fopen.demonii.com%3A1337&amp;tr=udp%3A%2F%2Ftracker.coppersurfer.tk%3A6969&amp;tr=udp%3A%2F%2Fexodus.desync.com%3A6969","seeders":9,"leechers":0,"uploader":"Bullrout","files":1,"time":1467728707,"description":"Winners &amp; Losers - S05E01 - Let The Right One In\r\n\r\nJenny and Gabe's windfall is bringing her no peace of mind and when Gabe's smoking hot new protege Riley arrives, Jenny fears she's found the source of her future trouble.\r\n\r\nComplete name                            : Winners &amp; Losers - S05E01 - Let The Right One In.mp4\r\nFormat                                   : MPEG-4\r\nFormat profile                           : Base Media / Version 2\r\nCodec ID                                 : mp42 (mp42/isom/avc1)\r\nFile size                                : 343 MiB\r\nDuration                                 : 42mn 58s\r\nOverall bit rate mode                    : Variable\r\nOverall bit rate                         : 1 116 Kbps\r\n\r\nVideo\r\nID                                       : 2\r\nFormat                                   : AVC\r\nFormat/Info                              : Advanced Video Codec\r\nFormat profile                           :   \r\nFormat settings, CABAC                   : Yes\r\nFormat settings, ReFrames                : 3 frames\r\nCodec ID                                 : avc1\r\nCodec ID/Info                            : Advanced Video Coding\r\nDuration                                 : 42mn 58s\r\nBit rate mode                            : Variable\r\nBit rate                                 : 985 Kbps\r\nMaximum bit rate                         : 1 000 Kbps\r\nWidth                                    : 720 pixels\r\nHeight                                   : 404 pixels\r\nDisplay aspect ratio                     : 16:9\r\nOriginal display aspect ratio            : 16:9\r\nFrame rate mode                          : Constant\r\nFrame rate                               : 25.000 fps\r\nStandard                                 : PAL\r\nColor space                              : YUV\r\nChroma subsampling                       : 4:2:0\r\nBit depth                                : 8 bits\r\nScan type                                : Progressive\r\nBits/(Pixel*Frame)                       : 0.135\r\nStream size                              : 303 MiB (88%)\r\nWriting library                          : x264 core 112\r\nColor range                              : Limited\r\nColor primaries                          : BT.601 PAL\r\nTransfer characteristics                 : BT.470 System B, BT.470 System G\r\nMatrix coefficients                      : BT.601\r\n\r\nAudio\r\nID                                       : 1\r\nFormat                                   : AAC\r\nFormat/Info                              : Advanced Audio Codec\r\nFormat profile                           : LC\r\nCodec ID                                 : 40\r\nDuration                                 : 42mn 58s\r\nBit rate mode                            : Variable\r\nBit rate                                 : 128 Kbps\r\nMaximum bit rate                         : 576 Kbps\r\nChannel(s)                               : 2 channels\r\nChannel positions                        : Front: L R\r\nSampling rate                            : 48.0 KHz\r\nFrame rate                               : 46.875 fps (1024 spf)\r\nCompression mode                         : Lossy\r\nStream size                              : 39.4 MiB (11%)","torrent":{"xt":"urn:btih:b8d35a8c34e6c1ab1aa855fcd8d384dd196d2a2a","amp;dn":"Winners+%26amp%3B+Losers+-+S05E01+-+Let+The+Right+One+In","amp;tr":["udp%3A%2F%2Ftracker.leechers-paradise.org%3A6969","udp%3A%2F%2Fzer0day.ch%3A1337","udp%3A%2F%2Fopen.demonii.com%3A1337","udp%3A%2F%2Ftracker.coppersurfer.tk%3A6969","udp%3A%2F%2Fexodus.desync.com%3A6969"],"infoHash":"b8d35a8c34e6c1ab1aa855fcd8d384dd196d2a2a","infoHashBuffer":{"type":"Buffer","data":[184,211,90,140,52,230,193,171,26,168,85,252,216,211,132,221,25,109,42,42]},"announce":[],"urlList":[]}}